<svg xmlns="http://www.w3.org/2000/svg" viewBox="0 0 48 140" fill="currentColor" aria-hidden="true">
  <!-- Minimal violin f-hole silhouette. Single path, monochrome.
       Used at low opacity as a recurring brand motif. -->
  <path d="M24 4c-3.4 0-6.2 2.6-6.8 6.1-3.4 4.8-5.8 10.4-6.8 16.6-1 6.3-.6 12.6 1.1 18.7.8 2.8 1.9 5.5 3.2 8.1-1.3 2.6-2.4 5.3-3.2 8.1-1.7 6.1-2.1 12.4-1.1 18.7 1 6.2 3.4 11.8 6.8 16.6.6 3.5 3.4 6.1 6.8 6.1s6.2-2.6 6.8-6.1c3.4-4.8 5.8-10.4 6.8-16.6 1-6.3.6-12.6-1.1-18.7-.8-2.8-1.9-5.5-3.2-8.1 1.3-2.6 2.4-5.3 3.2-8.1 1.7-6.1 2.1-12.4 1.1-18.7-1-6.2-3.4-11.8-6.8-16.6C30.2 6.6 27.4 4 24 4zm0 4c1.8 0 3.3 1.5 3.3 3.3S25.8 14.6 24 14.6s-3.3-1.5-3.3-3.3S22.2 8 24 8zm0 117.4c-1.8 0-3.3-1.5-3.3-3.3s1.5-3.3 3.3-3.3 3.3 1.5 3.3 3.3-1.5 3.3-3.3 3.3zM24 74.4c-2.5 0-4.5-2-4.5-4.4s2-4.4 4.5-4.4 4.5 2 4.5 4.4-2 4.4-4.5 4.4z"/>
</svg>
